<svg width="772" height="579" viewBox="0 0 772 579" fill="none" xmlns="http://www.w3.org/2000/svg">
<path d="M403.447 273.214H301.736V303.097H403.447V273.214Z" fill="#E6E6E6"/>
<path opacity="0.45" d="M403.447 497.206C560.413 497.206 687.659 484.223 687.659 468.206C687.659 452.19 560.413 439.206 403.447 439.206C246.481 439.206 119.235 452.19 119.235 468.206C119.235 484.223 246.481 497.206 403.447 497.206Z" fill="#E6E6E6"/>
<path d="M456.291 316.368H182.771V458.411H456.291V316.368Z" fill="#E6E6E6"/>
<path d="M471.538 300.754H167.505V316.368H471.538V300.754Z" fill="#C9C9C9"/>
<path d="M285.215 460.87C285.215 460.87 289.442 467.86 296.39 467.092C303.338 466.324 306.465 472.604 300.655 475.562C294.846 478.519 274.658 473.641 274.658 473.641V461.215L285.215 460.87Z" fill="#E15858"/>
<path d="M193.386 460.87C193.386 460.87 189.159 467.86 182.211 467.092C175.263 466.324 172.117 472.604 177.927 475.562C183.736 478.519 206.703 472.854 206.703 472.854L203.943 461.215L193.386 460.87Z" fill="#E15858"/>
<path d="M270.489 306.785H169.531L187.673 461.023H210.717C210.717 461.023 202.553 351.245 213.96 333.192V333.096C214.81 331.844 215.941 330.805 217.263 330.061C218.585 329.316 220.063 328.887 221.579 328.807C223.096 328.727 224.611 328.998 226.005 329.599C227.399 330.2 228.633 331.114 229.612 332.27C256.632 363.671 267.208 460.947 267.208 460.947H289.539L270.489 306.785Z" fill="#24285B"/>
<path d="M210.698 197.314C205.236 166.816 247.503 152.642 261.612 180.26C278.441 213.235 307.932 257.446 341.147 245.961C381.175 232.095 392.408 210.7 395.438 201.789C396.658 198.184 399.005 195.062 402.135 192.878C406.805 189.613 413.464 186.847 418.424 192.282C426.935 201.616 409.083 211.353 409.083 211.353C409.083 211.353 382.063 289.807 317.697 288.175C274.234 287.022 218.09 238.241 210.698 197.314Z" fill="#F4A28C"/>
<path opacity="0.09" d="M210.698 197.314C205.236 166.816 247.503 152.642 261.612 180.26C278.441 213.235 307.932 257.446 341.147 245.961C382.661 231.577 393.257 209.106 395.727 200.906C396.527 198.341 398.079 196.073 400.186 194.395C404.779 190.688 412.711 186.079 418.424 192.34C426.935 201.674 409.083 211.411 409.083 211.411C409.083 211.411 382.063 289.865 317.697 288.232C274.234 287.022 218.09 238.241 210.698 197.314Z" fill="black"/>
<path d="M220.58 147.246C220.58 147.246 175.804 140.101 155.558 179.703C135.312 219.304 169.531 306.785 169.531 306.785H270.489C270.489 306.785 355.409 159.23 220.58 147.246Z" fill="#E15858"/>
<path d="M243.817 151.221L241.096 381.455H289.596C289.596 381.455 305.21 234.803 294.113 196.277C283.015 157.751 259.701 157.559 243.817 151.221Z" fill="#E15858"/>
<path d="M220.58 147.246L223.031 383.933L165.748 386.218C165.748 386.218 143.708 255.91 149.691 224.01C155.674 192.109 143.978 183.87 156.562 169.985C164.373 161.045 174.366 154.257 185.579 150.274C196.791 146.292 208.845 145.249 220.58 147.246Z" fill="#E15858"/>
<path opacity="0.44" d="M223.031 383.933L213.516 384.317L165.748 386.238C165.748 386.238 143.708 255.929 149.691 224.029C151.006 217.221 151.614 210.296 151.505 203.364C151.216 187.443 147.259 180.317 156.562 170.004C164.373 161.064 174.366 154.276 185.579 150.294C196.791 146.311 208.845 145.268 220.58 147.265L223.031 383.933Z" fill="white"/>
<path opacity="0.08" d="M217.492 364.92C216.808 366.396 215.974 367.799 215.002 369.106C212.126 373.869 212.628 379.132 213.516 384.317L165.748 386.238C165.748 386.238 143.708 255.929 149.691 224.029C151.006 217.221 151.614 210.296 151.505 203.364C158.189 199.123 165.946 196.858 173.874 196.834C174.607 196.834 175.341 196.834 176.055 196.949C192.421 198.294 190.491 216.769 187.48 229.157C184.141 242.946 175.398 254.489 171.905 268.086C168.045 283.066 163.645 311.701 178.853 321.15C183.446 323.993 188.638 325.856 193.116 328.833C197.286 331.89 201.07 335.437 204.387 339.396C209.907 345.503 215.639 351.994 217.453 360.003C217.895 361.611 217.908 363.305 217.492 364.92Z" fill="black"/>
<path opacity="0.44" d="M243.817 151.221L241.096 381.455H289.596C289.596 381.455 305.21 234.803 294.113 196.277C283.015 157.751 259.701 157.559 243.817 151.221Z" fill="white"/>
<path d="M173.7 159.134C158.646 167.757 132.61 185.003 117.576 208.242L164.803 252.203C164.803 252.203 247.31 195.202 198.636 160.363C195.037 157.796 190.772 156.315 186.35 156.097C181.927 155.879 177.536 156.933 173.7 159.134Z" fill="#E15858"/>
<path opacity="0.44" d="M172.754 159.652C157.565 168.448 132.224 185.464 117.537 208.242L164.764 252.203C164.764 252.203 246.307 195.855 199.504 160.958C195.663 158.159 191.081 156.543 186.326 156.311C181.571 156.079 176.852 157.241 172.754 159.652Z" fill="white"/>
<path d="M184.272 323.956L133.3 369.227L165.506 405.134L216.478 359.863L184.272 323.956Z" fill="#FFD200"/>
<path d="M121.05 211.526C121.05 211.526 72.5873 266.607 87.0623 290.115C101.537 313.622 154.728 338.128 154.728 338.128C154.728 338.128 158.279 357.468 169.724 355.989C174.202 355.413 175.225 350.804 174.819 345.407C174.403 340.589 173.008 335.906 170.719 331.641C168.43 327.376 165.294 323.617 161.502 320.594C145.194 307.399 115.53 276.037 164.764 252.126L121.05 211.526Z" fill="#F4A28C"/>
<path d="M209.694 185.253C206.877 168.487 206.954 145.056 226.157 142.694C247.194 140.12 265.414 180.106 254.548 208.588" stroke="#24285B" stroke-width="2.03" stroke-linecap="round" stroke-linejoin="round"/>
<path d="M240.439 108.393L220.58 147.226L240.69 169.37L248.372 124.564L240.439 108.393Z" fill="#F4A28C"/>
<path opacity="0.31" d="M247.484 131.632C244.85 129.994 242.756 127.623 241.462 124.814C241.462 124.814 239.339 132.496 245.322 142.694L247.484 131.632Z" fill="#CE8172"/>
<path d="M260.067 110.986C260.067 110.986 258.871 124.238 255.107 132.534C254.745 133.338 254.226 134.063 253.58 134.666C252.934 135.268 252.175 135.738 251.346 136.047C250.517 136.356 249.634 136.498 248.749 136.466C247.864 136.433 246.995 136.226 246.191 135.857C242.041 133.936 236.965 130.095 236.734 122.912L234.804 110.775C234.683 108.306 235.335 105.861 236.669 103.777C238.003 101.692 239.955 100.071 242.254 99.1361C250.668 95.1222 261.206 102.958 260.067 110.986Z" fill="#F4A28C"/>
<path d="M258.89 119.302L261.65 125.063C261.807 125.388 261.878 125.747 261.857 126.107C261.837 126.467 261.725 126.815 261.532 127.12C261.339 127.425 261.072 127.677 260.755 127.851C260.438 128.025 260.082 128.117 259.72 128.117H254.528L258.89 119.302Z" fill="#F4A28C"/>
<path d="M231.311 124.065L231.947 105.992C231.947 105.992 222.722 101.441 227.547 96.0057C232.372 90.5706 234.997 96.0057 237.332 88.7076C239.667 81.4096 246.017 81.8129 248.912 87.1328C251.807 92.4527 251.653 86.1725 257.115 86.9599C262.577 87.7474 263.252 90.4937 262.191 94.4885C261.129 98.4832 269.911 96.409 270.374 102.171C270.837 107.932 269.621 112.676 256.362 109.603C243.103 106.53 249.279 119.897 231.311 124.065Z" fill="#FFD200"/>
<path d="M244.068 119.724C244.068 119.724 244.878 114.673 240.999 114.385C237.12 114.097 235.923 121.395 240.999 122.989L244.068 119.724Z" fill="#F4A28C"/>
<path d="M253.93 219.362C258.279 219.362 261.804 215.854 261.804 211.526C261.804 207.199 258.279 203.69 253.93 203.69C249.581 203.69 246.056 207.199 246.056 211.526C246.056 215.854 249.581 219.362 253.93 219.362Z" fill="#24285B"/>
<path d="M218.823 228.043C218.823 228.043 228.01 228.043 228.956 220.361C230.075 211.2 219.75 184.235 211.798 184.85C198.983 185.849 194.081 210.163 198.616 223.261C200.141 227.697 207.263 227.294 210.679 227.447" stroke="#24285B" stroke-width="2.03" stroke-linecap="round" stroke-linejoin="round"/>
<path d="M194.912 330.248L187.4 336.899L201.165 352.295L208.678 345.644L194.912 330.248Z" fill="#24285B"/>
<path d="M635.221 343.16H548.853C537.608 343.16 528.492 352.231 528.492 363.422V363.441C528.492 374.631 537.608 383.702 548.853 383.702H635.221C646.466 383.702 655.582 374.631 655.582 363.441V363.422C655.582 352.231 646.466 343.16 635.221 343.16Z" fill="#FFD200"/>
<path d="M648.885 379.458H533.356V466.324H648.885V379.458Z" fill="#FFD200"/>
<path d="M591.236 138.738C591.221 143.654 591.87 148.551 593.166 153.295C593.353 153.85 593.649 154.362 594.036 154.802C594.423 155.242 594.895 155.601 595.422 155.858C595.95 156.116 596.524 156.266 597.111 156.301C597.698 156.336 598.286 156.254 598.84 156.061C600.668 155.56 602.312 154.545 603.575 153.138C604.838 151.732 605.667 149.992 605.962 148.129L607.95 140.236C608.202 138.602 607.934 136.931 607.183 135.456C606.432 133.982 605.235 132.779 603.762 132.016C598.493 128.866 591.024 133.341 591.236 138.738Z" fill="#F4A28C"/>
<path d="M609.204 144.903L611.733 173.749L595.656 173.98L600.172 153.43L609.204 144.903Z" fill="#F4A28C"/>
<path d="M591.468 144.307L589.248 147.879C589.123 148.083 589.052 148.316 589.042 148.554C589.031 148.793 589.081 149.03 589.186 149.244C589.292 149.459 589.451 149.643 589.647 149.781C589.843 149.918 590.071 150.004 590.31 150.03L593.745 150.395L591.468 144.307Z" fill="#F4A28C"/>
<path opacity="0.31" d="M600.037 154.025C601.97 153.651 603.765 152.762 605.229 151.452C605.229 151.452 606.368 157.693 598.744 159.902L600.037 154.025Z" fill="#CE8172"/>
<path d="M505.486 366.398V454.782L514.017 457.739L535.093 368.204L505.486 366.398Z" fill="#F4A28C"/>
<path d="M505.795 452.746C505.795 452.746 500.217 458.661 493.81 457.797C487.402 456.933 485.684 465.882 496.106 465.844C499.34 465.85 502.569 465.58 505.756 465.037C508.694 464.628 511.689 464.992 514.441 466.094C514.982 466.272 515.564 466.281 516.109 466.119C516.654 465.958 517.137 465.634 517.491 465.191C520.733 462.003 514.21 453.476 514.21 453.476L505.795 452.746Z" fill="#E15858"/>
<path d="M608.606 144.979C608.606 144.979 608.413 141.58 610.999 141.657C613.586 141.734 613.875 146.631 610.44 147.418L608.606 144.979Z" fill="#F4A28C"/>
<path d="M593.05 138.181C595.874 138.658 598.758 138.658 601.581 138.181C601.581 138.181 603.395 147.995 611.231 150.453C611.231 150.453 618.642 135.818 609.552 130.134C601.928 125.39 596.274 121.165 590.001 126.811C589.099 127.629 588.439 128.678 588.095 129.843C587.751 131.008 587.736 132.245 588.051 133.419C588.365 134.592 588.998 135.657 589.88 136.497C590.762 137.337 591.859 137.919 593.05 138.181Z" fill="#24285B"/>
<path d="M614.589 134.724C619.46 134.724 623.409 130.794 623.409 125.947C623.409 121.1 619.46 117.17 614.589 117.17C609.718 117.17 605.769 121.1 605.769 125.947C605.769 130.794 609.718 134.724 614.589 134.724Z" fill="#24285B"/>
<path d="M601.427 143.328C601.427 143.328 601.813 139.487 604.959 140.005C608.104 140.524 608.066 145.21 604.109 147.034L601.427 143.328Z" fill="#F4A28C"/>
<path d="M594.536 178.57L610.227 174.076C610.227 174.076 652.166 178.57 651.722 212.045C651.394 236.839 622.29 329.524 622.29 329.524H558.503V296.875C558.645 281.423 555.002 266.17 547.888 252.434C538.026 233.804 532.854 201.443 594.536 178.57Z" fill="#E15858"/>
<path d="M558.503 314.256L622.29 329.62C622.29 329.62 625.397 357.007 603.202 359.158C581.007 361.309 512.975 353.78 539.416 437.055H486.765C486.765 437.055 454.766 347.577 532.95 329.62C542.427 327.431 558.31 325.645 558.465 315.965L558.503 314.256Z" fill="#24285B"/>
<path opacity="0.08" d="M590.098 201.904C590.098 201.904 558.986 213.12 569.659 250.724C580.332 288.328 558.465 294.052 558.465 294.052L586.72 321.477L622.348 329.524L633.542 292.112L590.098 201.904Z" fill="black"/>
<path d="M586.72 181.7C586.221 179.389 586.543 176.978 587.631 174.877C588.718 172.776 590.504 171.115 592.684 170.177C600.674 166.336 619.569 161.458 622.348 176.918C622.29 176.88 604.746 188.23 586.72 181.7Z" fill="#E15858"/>
<path opacity="0.46" d="M586.72 181.7C586.221 179.389 586.543 176.978 587.631 174.877C588.718 172.776 590.504 171.115 592.684 170.177C600.674 166.336 619.569 161.458 622.348 176.918C622.29 176.88 604.746 188.23 586.72 181.7Z" fill="white"/>
<path d="M582.667 218.44C585.234 189.037 627.057 185.388 635.105 213.792C639.37 228.792 641.571 250.532 636.63 281.011C624.722 354.625 526.35 332.405 526.35 332.405L524.535 321.957C524.535 321.957 566.513 305.152 586.72 283.738C598.551 271.005 580.602 242.12 582.667 218.44Z" fill="#F4A28C"/>
<path d="M529.476 320.92C529.476 320.92 512.704 320.209 508.651 327.872C504.598 335.535 500.931 344.101 508.767 344.447C516.603 344.792 517.279 335.497 519.807 333.999C522.335 332.501 532.95 332.424 532.95 326.893C532.95 321.362 529.476 320.92 529.476 320.92Z" fill="#F4A28C"/>
<path d="M535.71 81.7937H426.395V219.074H535.71V81.7937Z" fill="#C9C9C9"/>
<path d="M529.65 89.399H432.455V211.468H529.65V89.399Z" fill="#E6E6E6"/>
<path opacity="0.08" d="M471.808 111.216L467.157 114.347C467.157 114.347 476.363 117.4 475.475 133.956C474.587 150.511 473.429 158.25 457.545 163.397C442.761 168.16 440.831 171.809 442.588 187.923L447.548 185.484C447.548 185.484 443.089 172.27 452.72 170.523C452.72 170.523 454.013 179.453 468.546 186.559C479.952 192.148 493.54 187.923 506.046 170.331C518.552 152.738 513.978 133.514 504.791 129.596C495.605 125.678 480.782 127.138 480.782 127.138C480.782 127.138 480.57 119.494 471.808 111.216Z" fill="black"/>
<path opacity="0.08" d="M517.375 99.1746H490.567V102.055H517.375V99.1746Z" fill="black"/>
<path opacity="0.08" d="M517.375 105.205H490.567V108.086H517.375V105.205Z" fill="black"/>
<path opacity="0.08" d="M517.375 111.216H490.567V114.097H517.375V111.216Z" fill="black"/>
<path opacity="0.58" d="M431.162 280.512C431.162 280.512 415.124 276.133 411.63 261.307C411.63 261.307 436.489 256.313 437.203 281.856L431.162 280.512Z" fill="#E15858"/>
<path opacity="0.73" d="M433.131 278.918C433.131 278.918 421.917 261.268 431.799 244.771C431.799 244.771 450.713 256.736 442.298 278.956L433.131 278.918Z" fill="#E15858"/>
<path d="M436.026 278.937C436.026 278.937 441.97 260.289 459.861 256.851C459.861 256.851 463.219 268.95 448.281 279.052L436.026 278.937Z" fill="#E15858"/>
<path d="M424.388 278.514L427.63 300.658L448.127 300.754L451.157 278.63L424.388 278.514Z" fill="#24285B"/>
</svg>
