<svg width="40" height="12" viewBox="0 0 40 12" fill="none" xmlns="http://www.w3.org/2000/svg">
<path d="M7.57707 5.68258C8.22774 5.82125 8.75041 6.14658 9.14507 6.65858C9.53974 7.15991 9.73707 7.73591 9.73707 8.38658C9.73707 9.32525 9.40641 10.0719 8.74507 10.6266C8.09441 11.1706 7.18241 11.4426 6.00907 11.4426H0.777072V0.210581H5.83307C6.97441 0.210581 7.86507 0.471914 8.50507 0.99458C9.15574 1.51725 9.48107 2.22658 9.48107 3.12258C9.48107 3.78391 9.30507 4.33325 8.95307 4.77058C8.61174 5.20791 8.15307 5.51191 7.57707 5.68258ZM3.51307 4.75458H5.30507C5.75307 4.75458 6.09441 4.65858 6.32907 4.46658C6.57441 4.26391 6.69707 3.97058 6.69707 3.58658C6.69707 3.20258 6.57441 2.90925 6.32907 2.70658C6.09441 2.50391 5.75307 2.40258 5.30507 2.40258H3.51307V4.75458ZM5.52907 9.23458C5.98774 9.23458 6.33974 9.13325 6.58507 8.93058C6.84107 8.71725 6.96907 8.41325 6.96907 8.01858C6.96907 7.62391 6.83574 7.31458 6.56907 7.09058C6.31307 6.86658 5.95574 6.75458 5.49707 6.75458H3.51307V9.23458H5.52907ZM19.8839 3.82658C19.8839 4.47725 19.7346 5.07458 19.4359 5.61858C19.1373 6.15191 18.6786 6.58391 18.0599 6.91458C17.4413 7.24525 16.6733 7.41058 15.7559 7.41058H14.0599V11.4426H11.3239V0.210581H15.7559C16.6519 0.210581 17.4093 0.365247 18.0279 0.674581C18.6466 0.983914 19.1106 1.41058 19.4199 1.95458C19.7293 2.49858 19.8839 3.12258 19.8839 3.82658ZM15.5479 5.23458C16.0706 5.23458 16.4599 5.11191 16.7159 4.86658C16.9719 4.62125 17.0999 4.27458 17.0999 3.82658C17.0999 3.37858 16.9719 3.03191 16.7159 2.78658C16.4599 2.54125 16.0706 2.41858 15.5479 2.41858H14.0599V5.23458H15.5479ZM27.0363 11.4426L24.7003 7.20258H24.0443V11.4426H21.3083V0.210581H25.9003C26.7857 0.210581 27.5377 0.365247 28.1563 0.674581C28.7857 0.983914 29.255 1.41058 29.5643 1.95458C29.8737 2.48791 30.0283 3.08525 30.0283 3.74658C30.0283 4.49325 29.815 5.15991 29.3883 5.74658C28.9723 6.33325 28.3537 6.74925 27.5323 6.99458L30.1243 11.4426H27.0363ZM24.0443 5.26658H25.7403C26.2417 5.26658 26.615 5.14391 26.8603 4.89858C27.1163 4.65325 27.2443 4.30658 27.2443 3.85858C27.2443 3.43191 27.1163 3.09591 26.8603 2.85058C26.615 2.60525 26.2417 2.48258 25.7403 2.48258H24.0443V5.26658ZM35.8098 11.5546C34.9885 11.5546 34.2525 11.4212 33.6018 11.1546C32.9512 10.8879 32.4285 10.4932 32.0338 9.97058C31.6498 9.44791 31.4472 8.81858 31.4258 8.08258H34.3378C34.3805 8.49858 34.5245 8.81858 34.7698 9.04258C35.0152 9.25591 35.3352 9.36258 35.7298 9.36258C36.1352 9.36258 36.4552 9.27191 36.6898 9.09058C36.9245 8.89858 37.0418 8.63725 37.0418 8.30658C37.0418 8.02925 36.9458 7.79991 36.7538 7.61858C36.5725 7.43725 36.3432 7.28791 36.0658 7.17058C35.7992 7.05325 35.4152 6.91991 34.9138 6.77058C34.1885 6.54658 33.5965 6.32258 33.1378 6.09858C32.6792 5.87458 32.2845 5.54391 31.9538 5.10658C31.6232 4.66925 31.4578 4.09858 31.4578 3.39458C31.4578 2.34925 31.8365 1.53325 32.5938 0.946581C33.3512 0.349248 34.3378 0.050581 35.5538 0.050581C36.7912 0.050581 37.7885 0.349248 38.5458 0.946581C39.3032 1.53325 39.7085 2.35458 39.7618 3.41058H36.8018C36.7805 3.04791 36.6472 2.76525 36.4018 2.56258C36.1565 2.34925 35.8418 2.24258 35.4578 2.24258C35.1272 2.24258 34.8605 2.33325 34.6578 2.51458C34.4552 2.68525 34.3538 2.93591 34.3538 3.26658C34.3538 3.62925 34.5245 3.91191 34.8658 4.11458C35.2072 4.31725 35.7405 4.53591 36.4658 4.77058C37.1912 5.01591 37.7778 5.25058 38.2258 5.47458C38.6845 5.69858 39.0792 6.02391 39.4098 6.45058C39.7405 6.87725 39.9058 7.42658 39.9058 8.09858C39.9058 8.73858 39.7405 9.31991 39.4098 9.84258C39.0898 10.3652 38.6205 10.7812 38.0018 11.0906C37.3832 11.3999 36.6525 11.5546 35.8098 11.5546Z" fill="white"/>
</svg>
