<svg width="79" height="24" viewBox="0 0 79 24" fill="none" xmlns="http://www.w3.org/2000/svg">
<path d="M13.7715 11.48C15.0728 11.7573 16.1182 12.408 16.9075 13.432C17.6968 14.4347 18.0915 15.5867 18.0915 16.888C18.0915 18.7653 17.4302 20.2587 16.1075 21.368C14.8062 22.456 12.9822 23 10.6355 23H0.1715V0.535999H10.2835C12.5662 0.535999 14.3475 1.05867 15.6275 2.104C16.9288 3.14933 17.5795 4.568 17.5795 6.36C17.5795 7.68267 17.2275 8.78133 16.5235 9.656C15.8408 10.5307 14.9235 11.1387 13.7715 11.48ZM5.6435 9.624H9.2275C10.1235 9.624 10.8062 9.432 11.2755 9.048C11.7662 8.64267 12.0115 8.056 12.0115 7.288C12.0115 6.52 11.7662 5.93333 11.2755 5.528C10.8062 5.12267 10.1235 4.92 9.2275 4.92H5.6435V9.624ZM9.6755 18.584C10.5928 18.584 11.2968 18.3813 11.7875 17.976C12.2995 17.5493 12.5555 16.9413 12.5555 16.152C12.5555 15.3627 12.2888 14.744 11.7555 14.296C11.2435 13.848 10.5288 13.624 9.6115 13.624H5.6435V18.584H9.6755ZM38.3853 7.768C38.3853 9.06933 38.0866 10.264 37.4893 11.352C36.8919 12.4187 35.9746 13.2827 34.7373 13.944C33.4999 14.6053 31.9639 14.936 30.1293 14.936H26.7373V23H21.2653V0.535999H30.1293C31.9213 0.535999 33.4359 0.845332 34.6733 1.464C35.9106 2.08267 36.8386 2.936 37.4573 4.024C38.0759 5.112 38.3853 6.36 38.3853 7.768ZM29.7133 10.584C30.7586 10.584 31.5373 10.3387 32.0493 9.848C32.5613 9.35733 32.8173 8.664 32.8173 7.768C32.8173 6.872 32.5613 6.17867 32.0493 5.688C31.5373 5.19733 30.7586 4.952 29.7133 4.952H26.7373V10.584H29.7133ZM52.69 23L48.018 14.52H46.706V23H41.234V0.535999H50.418C52.1887 0.535999 53.6927 0.845332 54.93 1.464C56.1887 2.08267 57.1273 2.936 57.746 4.024C58.3647 5.09067 58.674 6.28533 58.674 7.608C58.674 9.10133 58.2473 10.4347 57.394 11.608C56.562 12.7813 55.3247 13.6133 53.682 14.104L58.866 23H52.69ZM46.706 10.648H50.098C51.1007 10.648 51.8473 10.4027 52.338 9.912C52.85 9.42133 53.106 8.728 53.106 7.832C53.106 6.97867 52.85 6.30667 52.338 5.816C51.8473 5.32533 51.1007 5.08 50.098 5.08H46.706V10.648ZM70.237 23.224C68.5943 23.224 67.1223 22.9573 65.821 22.424C64.5197 21.8907 63.4743 21.1013 62.685 20.056C61.917 19.0107 61.5117 17.752 61.469 16.28H67.293C67.3783 17.112 67.6663 17.752 68.157 18.2C68.6477 18.6267 69.2877 18.84 70.077 18.84C70.8877 18.84 71.5277 18.6587 71.997 18.296C72.4663 17.912 72.701 17.3893 72.701 16.728C72.701 16.1733 72.509 15.7147 72.125 15.352C71.7623 14.9893 71.3037 14.6907 70.749 14.456C70.2157 14.2213 69.4477 13.9547 68.445 13.656C66.9943 13.208 65.8103 12.76 64.893 12.312C63.9757 11.864 63.1863 11.2027 62.525 10.328C61.8637 9.45333 61.533 8.312 61.533 6.904C61.533 4.81333 62.2903 3.18133 63.805 2.008C65.3197 0.813333 67.293 0.216 69.725 0.216C72.1997 0.216 74.1943 0.813333 75.709 2.008C77.2237 3.18133 78.0343 4.824 78.141 6.936H72.221C72.1783 6.21067 71.9117 5.64533 71.421 5.24C70.9303 4.81333 70.301 4.6 69.533 4.6C68.8717 4.6 68.3383 4.78133 67.933 5.144C67.5277 5.48533 67.325 5.98667 67.325 6.648C67.325 7.37333 67.6663 7.93867 68.349 8.344C69.0317 8.74933 70.0983 9.18667 71.549 9.656C72.9997 10.1467 74.173 10.616 75.069 11.064C75.9863 11.512 76.7757 12.1627 77.437 13.016C78.0983 13.8693 78.429 14.968 78.429 16.312C78.429 17.592 78.0983 18.7547 77.437 19.8C76.797 20.8453 75.8583 21.6773 74.621 22.296C73.3837 22.9147 71.9223 23.224 70.237 23.224Z" fill="black"/>
</svg>
