<svg width="36" height="12" viewBox="0 0 36 12" fill="none" xmlns="http://www.w3.org/2000/svg">
<path d="M9.34484 4.24981C9.34484 4.90048 9.1955 5.49781 8.89684 6.04181C8.59817 6.57515 8.1395 7.00715 7.52084 7.33781C6.90217 7.66848 6.13417 7.83381 5.21684 7.83381H3.52084V11.8658H0.784835V0.633814H5.21684C6.11284 0.633814 6.87017 0.78848 7.48884 1.09781C8.1075 1.40715 8.5715 1.83381 8.88084 2.37781C9.19017 2.92181 9.34484 3.54581 9.34484 4.24981ZM5.00884 5.65781C5.5315 5.65781 5.92084 5.53515 6.17684 5.28981C6.43284 5.04448 6.56084 4.69781 6.56084 4.24981C6.56084 3.80181 6.43284 3.45515 6.17684 3.20981C5.92084 2.96448 5.5315 2.84181 5.00884 2.84181H3.52084V5.65781H5.00884ZM19.3292 4.24981C19.3292 4.90048 19.1799 5.49781 18.8812 6.04181C18.5825 6.57515 18.1239 7.00715 17.5052 7.33781C16.8865 7.66848 16.1185 7.83381 15.2012 7.83381H13.5052V11.8658H10.7692V0.633814H15.2012C16.0972 0.633814 16.8545 0.78848 17.4732 1.09781C18.0919 1.40715 18.5559 1.83381 18.8652 2.37781C19.1745 2.92181 19.3292 3.54581 19.3292 4.24981ZM14.9932 5.65781C15.5159 5.65781 15.9052 5.53515 16.1612 5.28981C16.4172 5.04448 16.5452 4.69781 16.5452 4.24981C16.5452 3.80181 16.4172 3.45515 16.1612 3.20981C15.9052 2.96448 15.5159 2.84181 14.9932 2.84181H13.5052V5.65781H14.9932ZM23.4896 0.633814V11.8658H20.7536V0.633814H23.4896ZM29.6803 0.633814C30.8643 0.633814 31.899 0.86848 32.7843 1.33781C33.6697 1.80715 34.3523 2.46848 34.8323 3.32181C35.323 4.16448 35.5683 5.14048 35.5683 6.24981C35.5683 7.34848 35.323 8.32448 34.8323 9.17781C34.3523 10.0311 33.6643 10.6925 32.7683 11.1618C31.883 11.6311 30.8537 11.8658 29.6803 11.8658H25.4723V0.633814H29.6803ZM29.5043 9.49781C30.539 9.49781 31.3443 9.21515 31.9203 8.64981C32.4963 8.08448 32.7843 7.28448 32.7843 6.24981C32.7843 5.21515 32.4963 4.40981 31.9203 3.83381C31.3443 3.25781 30.539 2.96981 29.5043 2.96981H28.2083V9.49781H29.5043Z" fill="white"/>
</svg>
