<svg width="36" height="12" viewBox="0 0 36 12" fill="none" xmlns="http://www.w3.org/2000/svg">
<path d="M9.34465 4.24972C9.34465 4.90039 9.19532 5.49772 8.89665 6.04172C8.59799 6.57506 8.13932 7.00706 7.52065 7.33772C6.90199 7.66839 6.13399 7.83372 5.21665 7.83372H3.52065V11.8657H0.784652V0.633722H5.21665C6.11265 0.633722 6.86999 0.788389 7.48865 1.09772C8.10732 1.40706 8.57132 1.83372 8.88065 2.37772C9.18999 2.92172 9.34465 3.54572 9.34465 4.24972ZM5.00865 5.65772C5.53132 5.65772 5.92065 5.53506 6.17665 5.28972C6.43265 5.04439 6.56065 4.69772 6.56065 4.24972C6.56065 3.80172 6.43265 3.45506 6.17665 3.20972C5.92065 2.96439 5.53132 2.84172 5.00865 2.84172H3.52065V5.65772H5.00865ZM19.329 4.24972C19.329 4.90039 19.1797 5.49772 18.881 6.04172C18.5824 6.57506 18.1237 7.00706 17.505 7.33772C16.8864 7.66839 16.1184 7.83372 15.201 7.83372H13.505V11.8657H10.769V0.633722H15.201C16.097 0.633722 16.8544 0.788389 17.473 1.09772C18.0917 1.40706 18.5557 1.83372 18.865 2.37772C19.1744 2.92172 19.329 3.54572 19.329 4.24972ZM14.993 5.65772C15.5157 5.65772 15.905 5.53506 16.161 5.28972C16.417 5.04439 16.545 4.69772 16.545 4.24972C16.545 3.80172 16.417 3.45506 16.161 3.20972C15.905 2.96439 15.5157 2.84172 14.993 2.84172H13.505V5.65772H14.993ZM23.4894 0.633722V11.8657H20.7534V0.633722H23.4894ZM29.6802 0.633722C30.8642 0.633722 31.8988 0.868389 32.7842 1.33772C33.6695 1.80706 34.3522 2.46839 34.8322 3.32172C35.3228 4.16439 35.5682 5.14039 35.5682 6.24972C35.5682 7.34839 35.3228 8.32439 34.8322 9.17772C34.3522 10.0311 33.6642 10.6924 32.7682 11.1617C31.8828 11.6311 30.8535 11.8657 29.6802 11.8657H25.4722V0.633722H29.6802ZM29.5042 9.49772C30.5388 9.49772 31.3442 9.21506 31.9202 8.64972C32.4962 8.08439 32.7842 7.28439 32.7842 6.24972C32.7842 5.21506 32.4962 4.40972 31.9202 3.83372C31.3442 3.25772 30.5388 2.96972 29.5042 2.96972H28.2082V9.49772H29.5042Z" fill="black"/>
</svg>
